<svg width="140" height="140" viewBox="0 0 140 140" fill="none" xmlns="http://www.w3.org/2000/svg">
<circle cx="70.5834" cy="69.4167" r="51.9167" fill="#28CB92"/>
<path d="M91.4375 98.1457L98 91.5832L74.8125 68.2498V38.9373H66.0625V71.7498L91.4375 98.1457ZM70 128.333C62.0278 128.333 54.4931 126.802 47.3959 123.739C40.2986 120.677 34.1007 116.496 28.8021 111.198C23.5035 105.899 19.3229 99.7012 16.2604 92.604C13.1979 85.5068 11.6667 77.9721 11.6667 69.9998C11.6667 62.0276 13.1979 54.4929 16.2604 47.3957C19.3229 40.2985 23.5035 34.1005 28.8021 28.8019C34.1007 23.5033 40.2986 19.3228 47.3959 16.2603C54.4931 13.1978 62.0278 11.6665 70 11.6665C77.9722 11.6665 85.507 13.1978 92.6042 16.2603C99.7014 19.3228 105.899 23.5033 111.198 28.8019C116.497 34.1005 120.677 40.2985 123.74 47.3957C126.802 54.4929 128.333 62.0276 128.333 69.9998C128.333 77.9721 126.802 85.5068 123.74 92.604C120.677 99.7012 116.497 105.899 111.198 111.198C105.899 116.496 99.7014 120.677 92.6042 123.739C85.507 126.802 77.9722 128.333 70 128.333ZM70 119.583C83.6111 119.583 95.2778 114.722 105 105C114.722 95.2776 119.583 83.611 119.583 69.9998C119.583 56.3887 114.722 44.7221 105 34.9998C95.2778 25.2776 83.6111 20.4165 70 20.4165C56.3889 20.4165 44.7222 25.2776 35 34.9998C25.2778 44.7221 20.4167 56.3887 20.4167 69.9998C20.4167 83.611 25.2778 95.2776 35 105C44.7222 114.722 56.3889 119.583 70 119.583Z" fill="#3F3F3F"/>
</svg>
