<svg width="140" height="140" viewBox="0 0 140 140" fill="none" xmlns="http://www.w3.org/2000/svg">
<path d="M77 91L88.0833 81.0833L119 106.167L120.75 114.333L109.667 120.75L77 91Z" fill="#28CB92"/>
<path d="M40.8333 86.3333L51.9166 81.0833L62.4166 78.75L60.0833 92.75L28 122.5H23.9166L18.0833 111.417L40.8333 86.3333Z" fill="#28CB92"/>
<path d="M111.417 128.333C110.833 128.333 110.299 128.236 109.813 128.042C109.326 127.847 108.84 127.507 108.354 127.021L73.0625 91.7293C72.5764 91.2432 72.2361 90.7571 72.0417 90.271C71.8472 89.7849 71.75 89.2502 71.75 88.6668C71.75 88.0835 71.8472 87.5488 72.0417 87.0627C72.2361 86.5766 72.5764 86.0904 73.0625 85.6043L85.4584 73.2085C85.9445 72.7224 86.4306 72.3821 86.9167 72.1877C87.4028 71.9932 87.9375 71.896 88.5209 71.896C89.1042 71.896 89.6389 71.9932 90.125 72.1877C90.6111 72.3821 91.0972 72.7224 91.5834 73.2085L126.875 108.5C127.361 108.986 127.701 109.472 127.896 109.959C128.09 110.445 128.188 110.979 128.188 111.563C128.188 112.146 128.09 112.681 127.896 113.167C127.701 113.653 127.361 114.139 126.875 114.625L114.479 127.021C113.993 127.507 113.507 127.847 113.021 128.042C112.535 128.236 112 128.333 111.417 128.333ZM111.417 117.834L117.688 111.563L88.5209 82.396L82.25 88.6668L111.417 117.834ZM28.4375 128.333C27.8542 128.333 27.2952 128.236 26.7604 128.042C26.2257 127.847 25.7153 127.507 25.2292 127.021L12.9792 114.771C12.4931 114.285 12.1528 113.774 11.9584 113.24C11.7639 112.705 11.6667 112.146 11.6667 111.563C11.6667 110.979 11.7639 110.445 11.9584 109.959C12.1528 109.472 12.4931 108.986 12.9792 108.5L45.7917 75.6877H58.1875L63.7292 70.146L38.2084 44.6252H29.8959L11.6667 26.396L26.1042 11.9585L44.3334 30.1877V38.5002L69.8542 64.021L88.8125 45.0627L79.0417 35.2918L87.2084 27.1252H70.7292L68.1042 24.5002L86.7709 5.8335L89.3959 8.4585V24.9377L97.5625 16.771L122.208 41.4168C123.667 42.8752 124.809 44.5522 125.635 46.4481C126.462 48.3439 126.875 50.3613 126.875 52.5002C126.875 54.4446 126.559 56.3161 125.927 58.1147C125.295 59.9134 124.396 61.5418 123.229 63.0002L110.833 50.6043L102.667 58.771L95.0834 51.1877L64.3125 81.9585V94.2085L31.5 127.021C31.0139 127.507 30.5278 127.847 30.0417 128.042C29.5556 128.236 29.0209 128.333 28.4375 128.333ZM28.4375 117.834L57.6042 88.6668V82.396H51.3334L22.1667 111.563L28.4375 117.834ZM28.4375 117.834L22.1667 111.563L25.375 114.625L28.4375 117.834Z" fill="#3F3F3F"/>
</svg>
