<svg width="140" height="140" viewBox="0 0 140 140" fill="none" xmlns="http://www.w3.org/2000/svg">
<rect x="16.3333" y="46" width="107.333" height="62.4797" fill="#28CB92"/>
<path d="M20.4167 116.667C18.0833 116.667 16.0417 115.792 14.2917 114.042C12.5417 112.292 11.6667 110.25 11.6667 107.917V32.0835C11.6667 29.7502 12.5417 27.7085 14.2917 25.9585C16.0417 24.2085 18.0833 23.3335 20.4167 23.3335H119.583C121.917 23.3335 123.958 24.2085 125.708 25.9585C127.458 27.7085 128.333 29.7502 128.333 32.0835V107.917C128.333 110.25 127.458 112.292 125.708 114.042C123.958 115.792 121.917 116.667 119.583 116.667H20.4167ZM20.4167 107.917H87.6458V84.146H20.4167V107.917ZM96.3958 107.917H119.583V51.6252H96.3958V107.917ZM20.4167 75.396H87.6458V51.6252H20.4167V75.396Z" fill="#3F3F3F"/>
</svg>
