<svg width="248" height="97" viewBox="0 0 248 97" fill="none" xmlns="http://www.w3.org/2000/svg">
<path d="M33.1658 5.13775C27.4511 7.93248 28.619 14.5649 27.2424 20.4882C25.8659 26.4115 23.5717 30.7079 18.6078 31.7924C13.6439 32.877 4.42543 32.5015 2.33972 40.9693C0.254007 49.4371 14.7702 55.4021 11.9337 65.5801C10.1956 71.8167 8.63375 77.6308 9.46906 83.4779C10.3044 89.325 13.6754 92.0478 16.9868 93.5016C25.5381 97.2558 33.4445 91.757 38.7047 87.6544C43.965 83.5518 48.1109 80.1367 58.861 80.972C69.611 81.8073 75.4582 89.325 84.6465 91.831C93.8349 94.3369 103.634 87.1049 103.703 77.7187C103.771 68.3325 95.9706 62.8681 96.2209 51.1467C96.4712 39.4253 99.7248 37.5899 100.184 30.0399C100.643 22.4898 97.9403 18.626 94.4364 15.4558C90.9325 12.2856 85.3071 10.8942 78.7165 12.8964C72.1258 14.8986 63.95 18.6528 58.861 17.2346C53.772 15.8163 49.3504 11.0193 45.8465 7.84907C42.3426 4.67886 38.8805 2.34302 33.1658 5.13775Z" fill="white"/>
<path d="M143.846 37.7897L134.103 56.6342V65.9361H127.247V56.6342L117.504 37.7897H125.282L130.735 49.5775L136.148 37.7897H143.846Z" fill="white"/>
<path d="M168.701 43.5633V65.9361H161.845V62.8889C161.15 63.8779 160.201 64.6798 158.998 65.2946C157.822 65.8827 156.512 66.1767 155.069 66.1767C153.358 66.1767 151.848 65.8025 150.538 65.0541C149.228 64.2789 148.213 63.1696 147.491 61.7262C146.769 60.2828 146.408 58.5854 146.408 56.6342V43.5633H153.224V55.712C153.224 57.2089 153.612 58.3716 154.387 59.2002C155.162 60.0289 156.205 60.4432 157.514 60.4432C158.851 60.4432 159.907 60.0289 160.682 59.2002C161.457 58.3716 161.845 57.2089 161.845 55.712V43.5633H168.701Z" fill="white"/>
<path d="M212.357 37.7897L205.02 65.9361H196.72L192.23 47.4124L187.579 65.9361H179.279L172.142 37.7897H179.479L183.529 58.2781L188.541 37.7897H196.079L200.89 58.2781L204.98 37.7897H212.357Z" fill="white"/>
<path d="M236.885 54.3889C236.885 55.0304 236.845 55.6986 236.765 56.3936H221.248C221.355 57.7836 221.796 58.8527 222.572 59.6012C223.373 60.3229 224.349 60.6837 225.498 60.6837C227.209 60.6837 228.399 59.962 229.067 58.5186H236.364C235.99 59.9888 235.308 61.3119 234.319 62.488C233.357 63.6641 232.141 64.5863 230.671 65.2545C229.201 65.9228 227.557 66.2569 225.739 66.2569C223.547 66.2569 221.596 65.7891 219.885 64.8536C218.174 63.918 216.838 62.5815 215.876 60.8441C214.913 59.1067 214.432 57.0752 214.432 54.7497C214.432 52.4242 214.9 50.3928 215.836 48.6553C216.798 46.9179 218.134 45.5814 219.845 44.6459C221.556 43.7103 223.52 43.2426 225.739 43.2426C227.904 43.2426 229.829 43.697 231.513 44.6058C233.197 45.5146 234.506 46.811 235.442 48.495C236.404 50.1789 236.885 52.1436 236.885 54.3889ZM229.869 52.5846C229.869 51.4085 229.468 50.473 228.666 49.778C227.864 49.083 226.862 48.7355 225.659 48.7355C224.509 48.7355 223.534 49.0696 222.732 49.7379C221.957 50.4061 221.476 51.355 221.288 52.5846H229.869Z" fill="white"/>
<path d="M243.95 41.2378C242.748 41.2378 241.759 40.8903 240.983 40.1954C240.235 39.4737 239.861 38.5916 239.861 37.5491C239.861 36.4799 240.235 35.5978 240.983 34.9029C241.759 34.1812 242.748 33.8203 243.95 33.8203C245.127 33.8203 246.089 34.1812 246.837 34.9029C247.612 35.5978 248 36.4799 248 37.5491C248 38.5916 247.612 39.4737 246.837 40.1954C246.089 40.8903 245.127 41.2378 243.95 41.2378ZM247.358 43.5633V65.9361H240.502V43.5633H247.358Z" fill="white"/>
</svg>
