<svg width="24" height="28" viewBox="0 0 24 28" fill="none" xmlns="http://www.w3.org/2000/svg">
<path d="M5.37214 24.5001H0.396429V8.14303H5.37214V24.5001ZM2.88161 5.91178C1.29054 5.91178 0 4.56647 0 2.94225C1.13882e-08 2.16208 0.303597 1.41386 0.844003 0.862199C1.38441 0.310534 2.11736 0.000612259 2.88161 0.000612259C3.64586 0.000612259 4.3788 0.310534 4.91921 0.862199C5.45962 1.41386 5.76321 2.16208 5.76321 2.94225C5.76321 4.56647 4.47214 5.91178 2.88161 5.91178ZM23.9946 24.5001H19.0296V16.5376C19.0296 14.6399 18.9921 12.2063 16.4427 12.2063C13.8557 12.2063 13.4593 14.268 13.4593 16.4008V24.5001H8.48893V8.14303H13.2611V10.3743H13.3307C13.995 9.08913 15.6177 7.73288 18.0386 7.73288C23.0743 7.73288 24 11.118 24 15.5149V24.5001H23.9946Z" fill="#28CB92"/>
</svg>
