<svg width="151" height="59" viewBox="0 0 151 59" fill="none" xmlns="http://www.w3.org/2000/svg">
<path d="M19.95 2.82644C16.4831 4.52188 17.1916 8.54547 16.3565 12.1389C15.5214 15.7323 14.1296 18.3387 11.1183 18.9967C8.10689 19.6546 2.51443 19.4269 1.24912 24.5639C-0.0161939 29.7009 8.79018 33.3196 7.06939 39.4942C6.01497 43.2777 5.06744 46.8049 5.57418 50.3521C6.08093 53.8993 8.12597 55.551 10.1349 56.433C15.3226 58.7105 20.119 55.3747 23.3102 52.8858C26.5014 50.3969 29.0166 48.3251 35.5382 48.8318C42.0598 49.3386 45.607 53.8993 51.1812 55.4195C56.7553 56.9397 62.7001 52.5524 62.7416 46.8582C62.7831 41.164 58.051 37.849 58.2028 30.7381C58.3547 23.6272 60.3285 22.5138 60.6069 17.9335C60.8852 13.3532 59.2459 11.0092 57.1202 9.08597C54.9946 7.16273 51.5819 6.31862 47.5836 7.53328C43.5853 8.74795 38.6254 11.0254 35.5382 10.1651C32.4509 9.30466 29.7685 6.39451 27.6428 4.47128C25.5172 2.54805 23.4168 1.13099 19.95 2.82644Z" fill="white"/>
<path d="M87.0951 22.6351L81.1845 34.0672V39.7103H77.0251V34.0672L71.1144 22.6351H75.8332L79.1413 29.7863L82.425 22.6351H87.0951Z" fill="white"/>
<path d="M102.173 26.1377V39.7103H98.014V37.8617C97.5924 38.4617 97.0167 38.9482 96.287 39.3212C95.5735 39.6779 94.7789 39.8563 93.9033 39.8563C92.8655 39.8563 91.9493 39.6293 91.1547 39.1752C90.3601 38.705 89.7439 38.032 89.3061 37.1564C88.8683 36.2807 88.6494 35.251 88.6494 34.0672V26.1377H92.7844V33.5078C92.7844 34.4159 93.0195 35.1213 93.4898 35.624C93.96 36.1267 94.5925 36.378 95.387 36.378C96.1978 36.378 96.8384 36.1267 97.3086 35.624C97.7789 35.1213 98.014 34.4159 98.014 33.5078V26.1377H102.173Z" fill="white"/>
<path d="M128.658 22.6351L124.206 39.7103H119.171L116.447 28.4728L113.626 39.7103H108.591L104.261 22.6351H108.712L111.169 35.0645L114.209 22.6351H118.782L121.701 35.0645L124.182 22.6351H128.658Z" fill="white"/>
<path d="M143.538 32.7051C143.538 33.0943 143.514 33.4997 143.465 33.9213H134.052C134.117 34.7645 134.384 35.4132 134.854 35.8672C135.341 36.305 135.933 36.5239 136.63 36.5239C137.668 36.5239 138.389 36.0861 138.795 35.2105H143.222C142.995 36.1023 142.581 36.905 141.981 37.6185C141.397 38.332 140.66 38.8914 139.768 39.2968C138.876 39.7022 137.879 39.9049 136.776 39.9049C135.446 39.9049 134.262 39.6212 133.225 39.0536C132.187 38.4861 131.376 37.6753 130.792 36.6212C130.209 35.5672 129.917 34.3348 129.917 32.924C129.917 31.5133 130.2 30.2809 130.768 29.2268C131.352 28.1728 132.163 27.362 133.2 26.7945C134.238 26.2269 135.43 25.9431 136.776 25.9431C138.089 25.9431 139.257 26.2188 140.279 26.7701C141.3 27.3215 142.095 28.1079 142.662 29.1295C143.246 30.1511 143.538 31.343 143.538 32.7051ZM139.281 31.6105C139.281 30.8971 139.038 30.3295 138.552 29.9079C138.065 29.4863 137.457 29.2755 136.727 29.2755C136.03 29.2755 135.438 29.4782 134.952 29.8836C134.481 30.289 134.19 30.8646 134.076 31.6105H139.281Z" fill="white"/>
<path d="M147.824 24.7269C147.094 24.7269 146.494 24.5161 146.024 24.0945C145.57 23.6567 145.343 23.1216 145.343 22.4892C145.343 21.8405 145.57 21.3054 146.024 20.8838C146.494 20.446 147.094 20.2271 147.824 20.2271C148.538 20.2271 149.121 20.446 149.575 20.8838C150.046 21.3054 150.281 21.8405 150.281 22.4892C150.281 23.1216 150.046 23.6567 149.575 24.0945C149.121 24.5161 148.538 24.7269 147.824 24.7269ZM149.892 26.1377V39.7103H145.732V26.1377H149.892Z" fill="white"/>
</svg>
