<svg width="149" height="58" viewBox="0 0 149 58" fill="none" xmlns="http://www.w3.org/2000/svg">
<path d="M19.6845 2.60687C16.2637 4.27975 16.9628 8.24979 16.1388 11.7954C15.3149 15.341 13.9416 17.9127 10.9703 18.5619C7.999 19.2111 2.48097 18.9864 1.2325 24.055C-0.0159784 29.1237 8.67319 32.6943 6.97531 38.7866C5.93492 42.5198 5 46 5.5 49.5C6 53 8.01782 54.6298 10 55.5C15.1187 57.7472 19.8513 54.4558 23 52C26.1487 49.5442 28.6304 47.5 35.0652 48C41.5 48.5 45 53 50.5 54.5C56 56 61.8657 51.671 61.9066 46.0526C61.9476 40.4342 57.2784 37.1633 57.4282 30.1471C57.578 23.1308 59.5256 22.0322 59.8003 17.5129C60.0749 12.9935 58.4574 10.6807 56.3601 8.7831C54.2627 6.88546 50.8954 6.05258 46.9503 7.25108C43.0053 8.44958 38.1114 10.6968 35.0652 9.84782C32.019 8.99888 29.3723 6.12746 27.2749 4.22982C25.1776 2.33219 23.1052 0.933994 19.6845 2.60687Z" fill="#28CB92"/>
<path d="M85.936 22.152L80.104 33.432V39H76V33.432L70.168 22.152H74.824L78.088 29.208L81.328 22.152H85.936Z" fill="#3F3F3F"/>
<path d="M100.814 25.608V39H96.7095V37.176C96.2935 37.768 95.7255 38.248 95.0055 38.616C94.3015 38.968 93.5175 39.144 92.6535 39.144C91.6295 39.144 90.7255 38.92 89.9415 38.472C89.1575 38.008 88.5495 37.344 88.1175 36.48C87.6855 35.616 87.4695 34.6 87.4695 33.432V25.608H91.5495V32.88C91.5495 33.776 91.7815 34.472 92.2455 34.968C92.7095 35.464 93.3335 35.712 94.1175 35.712C94.9175 35.712 95.5495 35.464 96.0135 34.968C96.4775 34.472 96.7095 33.776 96.7095 32.88V25.608H100.814Z" fill="#3F3F3F"/>
<path d="M126.945 22.152L122.553 39H117.585L114.897 27.912L112.113 39H107.145L102.873 22.152H107.265L109.689 34.416L112.689 22.152H117.201L120.081 34.416L122.529 22.152H126.945Z" fill="#3F3F3F"/>
<path d="M141.628 32.088C141.628 32.472 141.604 32.872 141.556 33.288H132.268C132.332 34.12 132.596 34.76 133.06 35.208C133.54 35.64 134.124 35.856 134.812 35.856C135.836 35.856 136.548 35.424 136.948 34.56H141.316C141.092 35.44 140.684 36.232 140.092 36.936C139.516 37.64 138.788 38.192 137.908 38.592C137.028 38.992 136.044 39.192 134.956 39.192C133.644 39.192 132.476 38.912 131.452 38.352C130.428 37.792 129.628 36.992 129.052 35.952C128.476 34.912 128.188 33.696 128.188 32.304C128.188 30.912 128.468 29.696 129.028 28.656C129.604 27.616 130.404 26.816 131.428 26.256C132.452 25.696 133.628 25.416 134.956 25.416C136.252 25.416 137.404 25.688 138.412 26.232C139.42 26.776 140.204 27.552 140.764 28.56C141.34 29.568 141.628 30.744 141.628 32.088ZM137.428 31.008C137.428 30.304 137.188 29.744 136.708 29.328C136.228 28.912 135.628 28.704 134.908 28.704C134.22 28.704 133.636 28.904 133.156 29.304C132.692 29.704 132.404 30.272 132.292 31.008H137.428Z" fill="#3F3F3F"/>
<path d="M145.857 24.216C145.137 24.216 144.545 24.008 144.081 23.592C143.633 23.16 143.409 22.632 143.409 22.008C143.409 21.368 143.633 20.84 144.081 20.424C144.545 19.992 145.137 19.776 145.857 19.776C146.561 19.776 147.137 19.992 147.585 20.424C148.049 20.84 148.281 21.368 148.281 22.008C148.281 22.632 148.049 23.16 147.585 23.592C147.137 24.008 146.561 24.216 145.857 24.216ZM147.897 25.608V39H143.793V25.608H147.897Z" fill="#3F3F3F"/>
</svg>
