<svg width="53" height="128" viewBox="0 0 53 128" fill="none" xmlns="http://www.w3.org/2000/svg">
<path d="M13 48.75C13 54.9642 18.0365 60 24.25 60H28.75C34.9642 60 40 54.9635 40 48.75V39.75H13V48.75ZM25.375 24H24.25C18.0365 24 13 29.0358 13 35.25V37.5H25.375V24ZM28.75 24H27.625V37.5H40V35.25C40 29.0358 34.9656 24 28.75 24Z" fill="#28CB92"/>
<path fill-rule="evenodd" clip-rule="evenodd" d="M24 128L24 68L29 68L29 128L24 128Z" fill="#28CB92"/>
<path d="M4.424 15.098C3.70533 15.098 3.06133 14.9813 2.492 14.748C1.92267 14.5147 1.46533 14.1693 1.12 13.712C0.784 13.2547 0.606667 12.704 0.588 12.06H3.136C3.17333 12.424 3.29933 12.704 3.514 12.9C3.72867 13.0867 4.00867 13.18 4.354 13.18C4.70867 13.18 4.98867 13.1007 5.194 12.942C5.39933 12.774 5.502 12.5453 5.502 12.256C5.502 12.0133 5.418 11.8127 5.25 11.654C5.09133 11.4953 4.89067 11.3647 4.648 11.262C4.41467 11.1593 4.07867 11.0427 3.64 10.912C3.00533 10.716 2.48733 10.52 2.086 10.324C1.68467 10.128 1.33933 9.83867 1.05 9.456C0.760667 9.07333 0.616 8.574 0.616 7.958C0.616 7.04333 0.947333 6.32933 1.61 5.816C2.27267 5.29333 3.136 5.032 4.2 5.032C5.28267 5.032 6.15533 5.29333 6.818 5.816C7.48067 6.32933 7.83533 7.048 7.882 7.972H5.292C5.27333 7.65467 5.15667 7.40733 4.942 7.23C4.72733 7.04333 4.452 6.95 4.116 6.95C3.82667 6.95 3.59333 7.02933 3.416 7.188C3.23867 7.33733 3.15 7.55667 3.15 7.846C3.15 8.16333 3.29933 8.41067 3.598 8.588C3.89667 8.76533 4.36333 8.95667 4.998 9.162C5.63267 9.37667 6.146 9.582 6.538 9.778C6.93933 9.974 7.28467 10.2587 7.574 10.632C7.86333 11.0053 8.008 11.486 8.008 12.074C8.008 12.634 7.86333 13.1427 7.574 13.6C7.294 14.0573 6.88333 14.4213 6.342 14.692C5.80067 14.9627 5.16133 15.098 4.424 15.098ZM9.07528 10.072C9.07528 9.10133 9.28528 8.238 9.70528 7.482C10.1253 6.71667 10.7086 6.124 11.4553 5.704C12.2113 5.27467 13.0653 5.06 14.0173 5.06C15.1839 5.06 16.1826 5.368 17.0133 5.984C17.8439 6.6 18.3993 7.44 18.6793 8.504L16.0473 8.504C15.8513 8.09333 15.5713 7.78067 15.2073 7.566C14.8526 7.35133 14.4466 7.244 13.9893 7.244C13.2519 7.244 12.6546 7.50067 12.1973 8.014C11.7399 8.52733 11.5113 9.21333 11.5113 10.072C11.5113 10.9307 11.7399 11.6167 12.1973 12.13C12.6546 12.6433 13.2519 12.9 13.9893 12.9C14.4466 12.9 14.8526 12.7927 15.2073 12.578C15.5713 12.3633 15.8513 12.0507 16.0473 11.64L18.6793 11.64C18.3993 12.704 17.8439 13.544 17.0133 14.16C16.1826 14.7667 15.1839 15.07 14.0173 15.07C13.0653 15.07 12.2113 14.86 11.4553 14.44C10.7086 14.0107 10.1253 13.418 9.70528 12.662C9.28528 11.906 9.07528 11.0427 9.07528 10.072ZM25.1573 15L23.1133 11.29H22.5393V15H20.1453L20.1453 5.172H24.1633C24.938 5.172 25.596 5.30733 26.1373 5.578C26.688 5.84867 27.0987 6.222 27.3693 6.698C27.64 7.16467 27.7753 7.68733 27.7753 8.266C27.7753 8.91933 27.5887 9.50267 27.2153 10.016C26.8513 10.5293 26.31 10.8933 25.5913 11.108L27.8593 15L25.1573 15ZM22.5393 9.596H24.0233C24.462 9.596 24.7887 9.48867 25.0033 9.274C25.2273 9.05933 25.3393 8.756 25.3393 8.364C25.3393 7.99067 25.2273 7.69667 25.0033 7.482C24.7887 7.26733 24.462 7.16 24.0233 7.16H22.5393V9.596ZM33.9262 15.098C33.0022 15.098 32.1528 14.8833 31.3782 14.454C30.6128 14.0247 30.0015 13.4273 29.5442 12.662C29.0962 11.8873 28.8722 11.0193 28.8722 10.058C28.8722 9.09667 29.0962 8.23333 29.5442 7.468C30.0015 6.70267 30.6128 6.10533 31.3782 5.676C32.1528 5.24667 33.0022 5.032 33.9262 5.032C34.8502 5.032 35.6948 5.24667 36.4602 5.676C37.2348 6.10533 37.8415 6.70267 38.2802 7.468C38.7282 8.23333 38.9522 9.09667 38.9522 10.058C38.9522 11.0193 38.7282 11.8873 38.2802 12.662C37.8322 13.4273 37.2255 14.0247 36.4602 14.454C35.6948 14.8833 34.8502 15.098 33.9262 15.098ZM33.9262 12.914C34.7102 12.914 35.3355 12.6527 35.8022 12.13C36.2782 11.6073 36.5162 10.9167 36.5162 10.058C36.5162 9.19 36.2782 8.49933 35.8022 7.986C35.3355 7.46333 34.7102 7.202 33.9262 7.202C33.1328 7.202 32.4982 7.45867 32.0222 7.972C31.5555 8.48533 31.3222 9.18067 31.3222 10.058C31.3222 10.926 31.5555 11.6213 32.0222 12.144C32.4982 12.6573 33.1328 12.914 33.9262 12.914ZM42.678 13.152H45.814V15H40.284V5.172L42.678 5.172V13.152ZM49.3499 13.152L52.4859 13.152V15L46.9559 15V5.172H49.3499V13.152Z" fill="#28CB92"/>
</svg>
